# xmcd
# Copyright (C) 1995-1998 Ti Kan
#
# Track frame offsets:
#       150
#       21136
#       36531
#       49598
#       70351
#       89788
#       110488
#       125773
#       150811
#       170236
#       195754
#
# Disc length: 2862 seconds
#
# Revision: 0
# Processed by: cddbd v1.5.2PL0 Copyright (c) Steve Scherf et al.
# Submitted via: CD-Transfer v1.0
#
DISCID=950b2c0b
DTITLE=National, The  - M. Berninger, A. Desner,
DYEAR=10
DGENRE=
TTITLE0=Terrible Love
TTITLE1=Sorrow
TTITLE2=Anyone's Ghost
TTITLE3=Little Faith
TTITLE4=Afraid Of Everyone
TTITLE5=Bloodbuzz Ohio
TTITLE6=Lemonworld
TTITLE7=Runaway
TTITLE8=Conversation 16
TTITLE9=England
TTITLE10=Vanderlyle Crybaby Geeks
EXTD=
EXTT0=
EXTT1=
EXTT2=
EXTT3=
EXTT4=
EXTT5=
EXTT6=
EXTT7=
EXTT8=
EXTT9=
EXTT10=
PLAYORDER=
